HIERARCHY
ROOT hip
{
  OFFSET 0 0 0
  CHANNELS 6 Xposition Yposition Zposition Zrotation Yrotation Xrotation
  JOINT abdomen
  {
    OFFSET 0 20.6881 -0.73152
    CHANNELS 3 Zrotation Xrotation Yrotation
    JOINT chest
    {
      OFFSET 0 11.7043 -0.48768
      CHANNELS 3 Zrotation Xrotation Yrotation
      JOINT neck
      {
        OFFSET 0 22.1894 -2.19456
        CHANNELS 3 Zrotation Xrotation Yrotation
        JOINT head
        {
          OFFSET -0.24384 7.07133 1.2192
          CHANNELS 3 Zrotation Xrotation Yrotation
          JOINT leftEye
          {
            OFFSET 4.14528 8.04674 8.04672
            CHANNELS 3 Zrotation Xrotation Yrotation
            End Site
            {
              OFFSET 1 0 0
            }
          }
          JOINT rightEye
          {
            OFFSET -3.6576 8.04674 8.04672
            CHANNELS 3 Zrotation Xrotation Yrotation
            End Site
            {
              OFFSET 1 0 0
            }
          }
        }
      }
      JOINT rCollar
      {
        OFFSET -2.68224 19.2634 -4.8768
        CHANNELS 3 Zrotation Xrotation Yrotation
        JOINT rShldr
        {
          OFFSET -8.77824 -1.95073 1.46304
          CHANNELS 3 Zrotation Xrotation Yrotation
          JOINT rForeArm
          {
            OFFSET -28.1742 -1.7115 0.48768
            CHANNELS 3 Zrotation Xrotation Yrotation
            JOINT rHand
            {
              OFFSET -22.5879 0.773209 7.07136
              CHANNELS 3 Zrotation Xrotation Yrotation
              JOINT rThumb1
              {
                OFFSET -1.2192 -0.487915 3.41376
                CHANNELS 3 Zrotation Xrotation Yrotation
                JOINT rThumb2
                {
                  OFFSET -3.37035 -0.52449 3.41376
                  CHANNELS 3 Zrotation Xrotation Yrotation
                  End Site
                  {
                    OFFSET -1.78271 -1.18214 1.43049
                  }
                }
              }
              JOINT rIndex1
              {
                OFFSET -7.75947 0.938293 5.60832
                CHANNELS 3 Zrotation Xrotation Yrotation
                JOINT rIndex2
                {
                  OFFSET -2.54057 -0.884171 1.56538
                  CHANNELS 3 Zrotation Xrotation Yrotation
                  End Site
                  {
                    OFFSET -1.62519 -0.234802 1.16502
                  }
                }
              }
              JOINT rMid1
              {
                OFFSET -8.24714 1.18213 3.41376
                CHANNELS 3 Zrotation Xrotation Yrotation
                JOINT rMid2
                {
                  OFFSET -3.10165 -0.590103 1.0647
                  CHANNELS 3 Zrotation Xrotation Yrotation
                  End Site
                  {
                    OFFSET -2.48547 -0.328903 0.83742
                  }
                }
              }
              JOINT rRing1
              {
                OFFSET -8.82822 0.546677 1.51678
                CHANNELS 3 Zrotation Xrotation Yrotation
                JOINT rRing2
                {
                  OFFSET -2.60934 -0.819778 -0.0198488
                  CHANNELS 3 Zrotation Xrotation Yrotation
                  End Site
                  {
                    OFFSET -2.33842 -0.294052 0.168128
                  }
                }
              }
              JOINT rPinky1
              {
                OFFSET -8.27202 -0.0477905 -0.4584
                CHANNELS 3 Zrotation Xrotation Yrotation
                JOINT rPinky2
                {
                  OFFSET -1.82734 -0.647385 -0.700984
                  CHANNELS 3 Zrotation Xrotation Yrotation
                  End Site
                  {
                    OFFSET -1.69225 -0.51767 -0.607171
                  }
                }
              }
            }
          }
        }
      }
      JOINT lCollar
      {
        OFFSET 2.68224 19.2634 -4.8768
        CHANNELS 3 Zrotation Xrotation Yrotation
        JOINT lShldr
        {
          OFFSET 8.77824 -1.95073 1.46304
          CHANNELS 3 Zrotation Xrotation Yrotation
          JOINT lForeArm
          {
            OFFSET 28.1742 -1.7115 0.48768
            CHANNELS 3 Zrotation Xrotation Yrotation
            JOINT lHand
            {
              OFFSET 22.5879 0.773209 7.07136
              CHANNELS 3 Zrotation Xrotation Yrotation
              JOINT lThumb1
              {
                OFFSET 1.2192 -0.487915 3.41376
                CHANNELS 3 Zrotation Xrotation Yrotation
                JOINT lThumb2
                {
                  OFFSET 3.37035 -0.52449 3.41376
                  CHANNELS 3 Zrotation Xrotation Yrotation
                  End Site
                  {
                    OFFSET 1.78271 -1.18214 1.43049
                  }
                }
              }
              JOINT lIndex1
              {
                OFFSET 7.75947 0.938293 5.60832
                CHANNELS 3 Zrotation Xrotation Yrotation
                JOINT lIndex2
                {
                  OFFSET 2.54057 -0.884171 1.56538
                  CHANNELS 3 Zrotation Xrotation Yrotation
                  End Site
                  {
                    OFFSET 1.62519 -0.234802 1.16502
                  }
                }
              }
              JOINT lMid1
              {
                OFFSET 8.24714 1.18213 3.41376
                CHANNELS 3 Zrotation Xrotation Yrotation
                JOINT lMid2
                {
                  OFFSET 3.10165 -0.590103 1.0647
                  CHANNELS 3 Zrotation Xrotation Yrotation
                  End Site
                  {
                    OFFSET 2.48547 -0.328903 0.83742
                  }
                }
              }
              JOINT lRing1
              {
                OFFSET 8.82822 0.546677 1.51678
                CHANNELS 3 Zrotation Xrotation Yrotation
                JOINT lRing2
                {
                  OFFSET 2.60934 -0.819778 -0.0198488
                  CHANNELS 3 Zrotation Xrotation Yrotation
                  End Site
                  {
                    OFFSET 2.33842 -0.294052 0.168128
                  }
                }
              }
              JOINT lPinky1
              {
                OFFSET 8.27202 -0.0477905 -0.4584
                CHANNELS 3 Zrotation Xrotation Yrotation
                JOINT lPinky2
                {
                  OFFSET 1.82734 -0.647385 -0.700984
                  CHANNELS 3 Zrotation Xrotation Yrotation
                  End Site
                  {
                    OFFSET 1.69225 -0.51767 -0.607171
                  }
                }
              }
            }
          }
        }
      }
    }
  }
  JOINT rButtock
  {
    OFFSET -8.77824 4.35084 1.2192
    CHANNELS 3 Zrotation Xrotation Yrotation
    JOINT rThigh
    {
      OFFSET 0 -1.70687 -2.19456
      CHANNELS 3 Zrotation Xrotation Yrotation
      JOINT rShin
      {
        OFFSET 0 -36.8199 0.73152
        CHANNELS 3 Zrotation Xrotation Yrotation
        JOINT rFoot
        {
          OFFSET 0.73152 -45.1104 -5.12064
          CHANNELS 3 Zrotation Xrotation Yrotation
          End Site
          {
            OFFSET -1.1221 -3.69964 12.103
          }
        }
      }
    }
  }
  JOINT lButtock
  {
    OFFSET 8.77824 4.35084 1.2192
    CHANNELS 3 Zrotation Xrotation Yrotation
    JOINT lThigh
    {
      OFFSET 0 -1.70687 -2.19456
      CHANNELS 3 Zrotation Xrotation Yrotation
      JOINT lShin
      {
        OFFSET 0 -36.8199 0.73152
        CHANNELS 3 Zrotation Xrotation Yrotation
        JOINT lFoot
        {
          OFFSET -0.73152 -45.1104 -5.12064
          CHANNELS 3 Zrotation Xrotation Yrotation
          End Site
          {
            OFFSET 1.1221 -3.69964 12.103
          }
        }
      }
    }
  }
}
MOTION
Frames:	6
Frame Time:	0.00833333
-9.07571 84.4292 260.169 0.0 0.0 0.0 -0.937495 -0.0046789 -0.0260741 -0.258762 -0.00545775 -0.0448326 7.58707e-15 -7.95139e-16 -3.10601e-16 2.25993e-14 3.18055e-15 -9.44227e-16 -0.0 0.0 0.0 -0.0 0.0 0.0 3.72608e-15 1.32005e-17 0.0 8.10964e-14 1.80149e-16 -1.98785e-15 1.35293e-12 -4.0075e-13 -1.11319e-13 1.54883e-11 4.23262e-13 -6.13847e-13 3.65358e-11 4.59581e-14 -1.54893e-12 6.30907e-11 7.63333e-14 -2.6828e-12 3.65386e-11 4.57205e-14 -1.55847e-12 7.73091 5.47488 0.417314 3.65359e-11 4.60186e-14 -1.55211e-12 2.90554 0.965183 0.102902 3.65425e-11 4.63168e-14 -1.5545e-12 10.2786 0.731801 0.0259123 3.65273e-11 4.73108e-14 -1.54257e-12 2.22167 -0.733487 -0.20892 3.72859e-15 1.22299e-17 -2.98177e-16 7.599e-14 1.67725e-16 -4.17448e-15 1.35263e-12 4.08701e-13 -6.99722e-14 1.54779e-11 -3.72125e-13 -6.36111e-13 3.65183e-11 7.55529e-14 -1.54893e-12 6.30768e-11 1.30403e-13 -2.67723e-12 3.6514e-11 7.79236e-14 -1.54257e-12 -7.73091 5.47488 -0.417314 3.65194e-11 7.56376e-14 -1.54893e-12 -2.90554 0.965183 -0.102902 3.65169e-11 7.53394e-14 -1.54973e-12 -10.2786 0.731801 -0.0259123 3.65167e-11 7.63333e-14 -1.55847e-12 -2.22167 -0.733487 0.20892 -2.03217e-16 0.0 -3.88251e-19 -0.229454 -1.95205 -0.0134878 -0.00909646 -2.01821 -0.0753311 -0.480757 3.9695 0.135107 2.03217e-16 0.0 3.88251e-19 -1.19861 -5.36327 0.104971 4.45832e-05 4.16072 -0.0211811 0.495568 1.20192 -0.0808528
-9.81299 83.1402 251.241 -177.007 -4.7955 175.913 -1.89878 3.50742 -0.847238 1.53397 -2.49311 -0.200019 -0.997348 2.42405 -1.38822 -1.46043 1.97584 -1.30547 -0.0 0.0 0.0 -0.0 0.0 0.0 3.55699e-14 3.79129e-14 2.9318e-14 11.8473 -18.8595 2.12691 -7.93456 -4.86614 10.7219 0.666355 -18.2868 -2.12161 -1.13376e-10 1.35934e-11 -1.95236e-10 -1.84362e-10 2.89256e-11 -3.42301e-10 -1.13374e-10 1.35949e-11 -1.95247e-10 7.73091 5.47488 0.417314 -1.13378e-10 1.35953e-11 -1.95239e-10 2.90554 0.965183 0.102902 -1.13368e-10 1.35959e-11 -1.95242e-10 10.2786 0.731801 0.0259123 -1.13381e-10 1.35964e-11 -1.95233e-10 2.22167 -0.733487 -0.20892 3.55236e-14 3.79121e-14 2.90039e-14 -21.7323 4.31867 3.36378 7.49321 -4.46773 -10.3212 -0.0209125 -3.20888 0.448428 -7.50261e-11 -2.76515e-10 1.4959e-10 -1.3051e-10 -4.81058e-10 2.59254e-10 -7.50297e-11 -2.76513e-10 1.49595e-10 -7.73091 5.47488 -0.417314 -7.5025e-11 -2.76514e-10 1.4959e-10 -2.90554 0.965183 -0.102902 -7.5028e-11 -2.76515e-10 1.49586e-10 -10.2786 0.731801 -0.0259123 -7.5025e-11 -2.76513e-10 1.49578e-10 -2.22167 -0.733487 0.20892 -2.03217e-16 0.0 -3.88251e-19 1.61526 -3.74919 0.811289 0.0468785 8.49566 0.132902 -1.19752 -2.29877 -5.52707 2.03217e-16 0.0 3.88251e-19 -1.03353 -7.03668 -1.61681 -0.00365908 13.6196 -0.168845 0.726378 -3.95045 1.73149
-9.80906 83.1405 251.241 -177.015 -4.731 175.917 -2.8061 7.2163 -1.72279 3.41295 -5.11925 -0.364651 -1.92364 4.97853 -2.86732 -2.90634 4.06092 -2.69833 -0.0 0.0 0.0 -0.0 0.0 0.0 7.21455e-14 7.98114e-14 6.0912e-14 26.2855 -38.7134 5.31627 -14.3583 -9.42903 22.2815 -0.449236 -37.5249 -5.22762 -2.81078e-10 2.80002e-11 -4.02861e-10 -4.6169e-10 5.99982e-11 -7.06712e-10 -2.81078e-10 2.80037e-11 -4.02873e-10 7.73091 5.47488 0.417314 -2.81082e-10 2.80044e-11 -4.02864e-10 2.90554 0.965183 0.102902 -2.81069e-10 2.80053e-11 -4.02866e-10 10.2786 0.731801 0.0259123 -2.8108e-10 2.80051e-11 -4.02861e-10 2.22167 -0.733487 -0.20892 7.20465e-14 7.98107e-14 6.05796e-14 -45.2603 8.83912 6.98065 13.6932 -8.71216 -21.4334 0.0119431 -6.60467 0.927768 -2.08827e-10 -5.83568e-10 3.13218e-10 -3.62585e-10 -1.01512e-09 5.42744e-10 -2.0883e-10 -5.83566e-10 3.13222e-10 -7.73091 5.47488 -0.417314 -2.08826e-10 -5.83568e-10 3.13218e-10 -2.90554 0.965183 -0.102902 -2.0883e-10 -5.83569e-10 3.13211e-10 -10.2786 0.731801 -0.0259123 -2.08824e-10 -5.83566e-10 3.13203e-10 -2.22167 -0.733487 0.20892 -2.03217e-16 0.0 -3.88251e-19 3.62137 -5.64681 1.68863 0.0189594 19.6111 0.371566 -3.3061 -8.76809 -11.64 2.03217e-16 0.0 3.88251e-19 -0.970504 -8.79514 -3.45073 0.050134 23.6193 -0.344057 1.32937 -9.38034 3.69135
-9.83489 83.1377 251.25 -177.116 -4.7849 175.956 -3.51502 10.5227 -2.52733 5.07869 -7.46817 -0.514187 -2.63757 7.255 -4.19458 -4.11019 5.91519 -3.93508 -0.0 0.0 0.0 -0.0 0.0 0.0 9.92575e-14 1.13712e-13 8.79541e-14 42.5473 -56.1355 10.881 -18.552 -12.5519 32.9309 -4.52103 -54.4451 -10.4311 -4.13199e-10 4.06882e-11 -5.82611e-10 -6.79268e-10 8.66242e-11 -1.02154e-09 -4.13199e-10 4.06931e-11 -5.82624e-10 7.73091 5.47488 0.417314 -4.13205e-10 4.0694e-11 -5.82613e-10 2.90554 0.965183 0.102902 -4.13189e-10 4.06951e-11 -5.82616e-10 10.2786 0.731801 0.0259123 -4.13198e-10 4.06945e-11 -5.82613e-10 2.22167 -0.733487 -0.20892 9.91136e-14 1.13712e-13 8.76081e-14 -66.7421 12.7752 10.3208 17.8301 -11.6636 -31.5932 0.0897654 -9.62427 1.36235 -2.98115e-10 -8.29695e-10 4.51868e-10 -5.17682e-10 -1.44344e-09 7.83115e-10 -2.98117e-10 -8.29693e-10 4.51871e-10 -7.73091 5.47488 -0.417314 -2.98114e-10 -8.29694e-10 4.51868e-10 -2.90554 0.965183 -0.102902 -2.98118e-10 -8.29696e-10 4.51858e-10 -10.2786 0.731801 -0.0259123 -2.98108e-10 -8.29692e-10 4.5185e-10 -2.22167 -0.733487 0.20892 -2.03217e-16 0.0 -3.88251e-19 5.46102 -7.33781 2.47591 -0.0961512 29.522 0.626205 -6.37975 -14.2164 -17.386 2.03217e-16 0.0 3.88251e-19 -1.00925 -10.3515 -5.10623 0.159848 32.5365 -0.533827 2.1894 -14.1973 5.51267
-9.83842 83.1372 251.246 -177.113 -4.8341 175.963 -3.94371 12.8313 -3.11885 6.23984 -9.12426 -0.622484 -3.07205 8.85289 -5.11378 -4.90305 7.20453 -4.76357 -0.0 0.0 0.0 -0.0 0.0 0.0 1.0271e-13 1.27619e-13 1.03617e-13 59.1507 -67.758 19.6914 -20.7688 -14.0105 40.5806 -11.8853 -65.8475 -18.265 -4.56367e-10 4.90791e-11 -6.92674e-10 -7.47471e-10 1.02134e-10 -1.21241e-09 -4.56367e-10 4.90843e-11 -6.92687e-10 7.73091 5.47488 0.417314 -4.56371e-10 4.90849e-11 -6.92674e-10 2.90554 0.965183 0.102902 -4.56356e-10 4.9086e-11 -6.92678e-10 10.2786 0.731801 0.0259123 -4.56364e-10 4.90855e-11 -6.92677e-10 2.22167 -0.733487 -0.20892 1.02541e-13 1.27619e-13 1.03269e-13 -82.0085 15.4224 12.7498 20.0356 -13.0566 -38.7665 0.171062 -11.7057 1.66864 -2.76117e-10 -9.23505e-10 5.28074e-10 -4.80333e-10 -1.60739e-09 9.15686e-10 -2.76119e-10 -9.23503e-10 5.28077e-10 -7.73091 5.47488 -0.417314 -2.76117e-10 -9.23504e-10 5.28074e-10 -2.90554 0.965183 -0.102902 -2.76121e-10 -9.23506e-10 5.28063e-10 -10.2786 0.731801 -0.0259123 -2.7611e-10 -9.23502e-10 5.28055e-10 -2.22167 -0.733487 0.20892 -2.03217e-16 0.0 -3.88251e-19 6.77362 -8.51733 3.02495 -0.242054 36.4229 0.845824 -9.20311 -17.731 -21.6381 2.03217e-16 0.0 3.88251e-19 -1.08623 -11.4294 -6.27899 0.281658 38.7487 -0.697559 2.97455 -17.5385 6.83304
-9.84061 83.1364 251.239 -177.099 -4.8991 175.975 -4.07521 13.7421 -3.39618 6.7106 -9.82809 -0.671708 -3.22776 9.54733 -5.43848 -5.21655 7.69942 -4.99535 -0.0 0.0 0.0 -0.0 0.0 0.0 6.40849e-14 1.10502e-13 1.05521e-13 68.378 -71.9087 25.7808 -21.5506 -14.4479 43.7413 -17.2935 -70.1097 -23.7896 -3.56106e-10 5.37503e-11 -7.28015e-10 -5.72708e-10 1.04894e-10 -1.26806e-09 -3.56104e-10 5.37537e-11 -7.28028e-10 7.73091 5.47488 0.417314 -3.56105e-10 5.37533e-11 -7.28011e-10 2.90554 0.965183 0.102902 -3.56094e-10 5.37541e-11 -7.28019e-10 10.2786 0.731801 0.0259123 -3.56104e-10 5.37545e-11 -7.28019e-10 2.22167 -0.733487 -0.20892 6.39227e-14 1.10502e-13 1.0519e-13 -88.0793 16.3899 13.7801 20.7452 -13.3945 -41.5031 0.207802 -12.482 1.78467 -5.42649e-11 -7.98742e-10 5.25902e-10 -9.76988e-11 -1.39237e-09 9.13295e-10 -5.42657e-11 -7.9874e-10 5.25908e-10 -7.73091 5.47488 -0.417314 -5.4264e-11 -7.98741e-10 5.25903e-10 -2.90554 0.965183 -0.102902 -5.42684e-11 -7.98743e-10 5.25894e-10 -10.2786 0.731801 -0.0259123 -5.42566e-11 -7.9874e-10 5.25885e-10 -2.22167 -0.733487 0.20892 -2.03217e-16 0.0 -3.88251e-19 7.30193 -8.98087 3.23202 -0.317732 39.1069 0.945016 -10.4581 -18.998 -23.3823 2.03217e-16 0.0 3.88251e-19 -1.1162 -11.8525 -6.75471 0.341783 41.1733 -0.771292 3.31346 -18.8522 7.33196
